<?xml version="1.0" ?>
<!DOCTYPE svg  PUBLIC '-//W3C//DTD SVG 1.1//EN'  'http://www.w3.org/Graphics/SVG/1.1/DTD/svg11.dtd'>
<!-- Uploaded to: SVG Repo, www.svgrepo.com, Generator: SVG Repo Mixer Tools -->
<svg fill="#000000" width="800px" height="800px" viewBox="0 0 512 512" version="1.1" xml:space="preserve" xmlns="http://www.w3.org/2000/svg" xmlns:xlink="http://www.w3.org/1999/xlink">
<g id="_x34_60_x2C__Algorithm_x2C__process_x2C__scheme_x2C__work_x2C__workflow">
<g>
<path d="M206.223,100.664h119.011c0-16,0-32.025,0-48.025h-32.867    c-1.85,0-3.349-1.496-3.349-3.347c0-6.421-2.61-12.271-6.829-16.461c-4.219-4.218-10.041-6.829-16.46-6.829    c-6.422,0-12.244,2.611-16.462,6.829c-4.19,4.19-6.801,9.985-6.83,16.38v0.081c0,1.851-1.495,3.347-3.348,3.347h-32.866    C206.223,68.639,206.223,84.664,206.223,100.664 M331.93,82.542h64.049c4.572,0,8.763,1.878,11.753,4.897    c3.021,3.02,4.899,7.184,4.899,11.781v14.611l0.028-0.027l0.024-0.027h0.028l0.027-0.055l0,0l0.057-0.027v-0.027l0.024-0.026    l0.028-0.027l0.028-0.027l0.027-0.026l0,0l0.053-0.055l0,0l0.057-0.027l0.024-0.027l0.028-0.027l0.027-0.027l0,0l0.053-0.055l0,0    l0.057-0.027l0,0l0.053-0.026l0.027-0.027l0.028-0.027l0.028-0.026h0.024l0.028-0.027h0.027l0.028-0.027l0.024-0.027l0.028-0.027    l0.057-0.027h0.024l0.056-0.027l0.053-0.027l0,0l0.057-0.027l0.028-0.027h0.052l0.028-0.027l0.028-0.026h0.053l0.028-0.027h0.052    l0,0l0.085-0.054h0.053l0.027-0.027h0.053h0.028l0.028-0.027h0.027l0.053-0.027h0.028h0.028l0.053-0.027h0.028h0.052l0.085-0.027    l0,0h0.053h0.027h0.053l0.028-0.027h0.028h0.053h0.027h0.057l0,0h0.081h0.056h0.024h0.057h0.027h0.053h0.028h0.028h0.053h0.028    h0.052l0,0h0.085l0,0l0.053,0.027h0.027h0.053h0.028h0.028l0.053,0.027h0.027h0.028h0.028l0.053,0.027h0.028h0.053l0,0    l0.056,0.027h0.028l0.053,0.027h0.027h0.028l0.053,0.027h0.028l0.028,0.026h0.024l0.056,0.027l0,0l0.081,0.027l0.056,0.026h0.024    l0.028,0.027h0.028l0.053,0.027l0.028,0.027h0.027l0.053,0.027l0,0l0.057,0.027l0,0l0.053,0.055h0.028l0.056,0.027l0,0    l0.053,0.027l0.028,0.027l0.027,0.026l0.025,0.027h0.027l0.028,0.027l0.028,0.026l0.053,0.027l0,0l0.056,0.055l0,0l0.053,0.027    l0.028,0.027l0.028,0.027l0.027,0.027l0.024,0.027l0.028,0.027l0.028,0.026l0.028,0.027h0.024l0.028,0.054l0,0l0.056,0.055l0,0    l0.053,0.055V85.889c0-3.047-1.253-5.822-3.239-7.809c-2.011-2.014-4.787-3.266-7.833-3.266H331.93V82.542z M135.506,82.542    h64.024v-7.728h-74.689c-3.05,0-5.798,1.252-7.809,3.238c-2.015,2.014-3.268,4.789-3.268,7.836v31.372h5.061v-18.04    c0-4.57,1.878-8.734,4.899-11.754C126.719,84.42,130.909,82.542,135.506,82.542z M272.423,53.238    c-1.717-1.688-4.082-2.748-6.693-2.748c-2.53,0-4.843,0.979-6.531,2.611l-0.164,0.164c-1.685,1.687-2.748,4.054-2.748,6.666    c0,2.611,1.063,4.979,2.748,6.693c1.716,1.686,4.081,2.748,6.695,2.748c2.53,0,4.844-0.979,6.528-2.585l0.165-0.163    c1.688-1.715,2.748-4.082,2.748-6.693C275.171,57.319,274.11,54.952,272.423,53.238z M265.729,43.797    c4.433,0,8.49,1.795,11.399,4.734c2.938,2.91,4.734,6.938,4.734,11.4c0,4.462-1.797,8.489-4.706,11.428l-0.218,0.163    c-2.913,2.829-6.857,4.544-11.21,4.544c-4.464,0-8.489-1.797-11.402-4.707c-2.909-2.938-4.734-6.966-4.734-11.428    c0-4.463,1.825-8.49,4.734-11.4l0.189-0.191C257.43,45.537,261.375,43.797,265.729,43.797z M214.06,185.691h-26.746v26.747h26.746    V185.691z M183.966,178.998h33.438c1.853,0,3.348,1.496,3.348,3.348v33.439c0,1.85-1.495,3.347-3.348,3.347h-33.438    c-1.825,0-3.32-1.497-3.32-3.347v-33.439C180.646,180.494,182.141,178.998,183.966,178.998z M298.951,185.691h-53.902v26.747    h53.902V185.691z M214.06,238.722h-26.746v66.962h26.746v-33.494v-0.082V238.722z M313.073,275.535h-10.666h-0.108h-47.834v30.148    h58.608V275.535z M346.512,275.535h-26.746v33.495v0.081v41.467h26.746V275.535z M359.574,357.271h-9.634h-0.081h-33.441h-0.081    H184.429v26.747h175.145V357.271z M247.772,275.535h-6.068h-0.084h-20.867v30.148h27.02V275.535z M238.356,268.843v-52.977v-0.081    v-0.082v-33.357c0-1.852,1.499-3.348,3.348-3.348h60.595c1.85,0,3.345,1.496,3.345,3.348v33.357v0.082v0.081v52.977h10.693h0.081    h0.084h33.357c1.85,0,3.346,1.496,3.346,3.347v78.389h9.714c1.849,0,3.348,1.497,3.348,3.348v33.439    c0,1.85-1.499,3.347-3.348,3.347H181.081c-1.85,0-3.348-1.497-3.348-3.347v-33.439c0-1.851,1.499-3.348,3.348-3.348h131.992    v-38.201h-61.873h-0.084h-0.081h-33.547h-0.084h-0.081h-33.358c-1.825,0-3.32-1.523-3.32-3.347v-73.655    c0-1.85,1.495-3.347,3.32-3.347h33.438c1.853,0,3.348,1.497,3.348,3.347v33.468H238.356z M298.951,268.843v-49.711h-53.902v49.711    h5.987h0.081h0.084H298.951z M418.235,128.742l-0.028-0.054c-0.08-0.136-0.189-0.3-0.242-0.462l-2.775-5.17l-2.832,5.278    c-0.053,0.163-0.162,0.326-0.242,0.489l-13.934,26.039v198.79h13.659V236.49c0-1.85,1.499-3.346,3.349-3.346    s3.345,1.496,3.345,3.346v117.163h13.658V192.303H417.2c-1.85,0-3.345-1.523-3.345-3.347c0-1.849,1.495-3.347,3.345-3.347h14.992    v-30.746L418.235,128.742z M432.192,360.32h-34.011v8.271h34.011V360.32z M405.721,410.575l-0.246-0.082l-0.056-0.027    l-0.161-0.081h-0.028l-0.162-0.055l-0.084-0.027l-0.242-0.108h-0.028l-0.164-0.082l-0.053-0.026l-0.218-0.109l-0.081-0.027    l-0.165-0.082l0,0l-0.245-0.109l-0.246-0.108l-0.024-0.027l-0.165-0.081l-0.028-0.027l-0.133-0.055l-0.109-0.055l-0.056-0.027    l-0.161-0.108l-0.246-0.108l-0.081-0.055l-0.137-0.082l-0.028-0.026l-0.161-0.082l-0.028-0.027l-0.217-0.136l-0.246-0.136l0,0    l-0.137-0.109l-0.081-0.027l-0.218-0.136l-0.027-0.027l-0.162-0.108l-0.027-0.027l-0.407-0.272l-0.028-0.026l-0.137-0.109    l-0.298-0.218l-0.166-0.109l-0.024-0.027l-0.192-0.136l-0.218-0.163l-0.134-0.136l-0.056-0.027l-0.246-0.218l-0.137-0.108    L399,406.603l-0.109-0.109l-0.084-0.054l-0.189-0.163v-0.027l-0.137-0.137l-0.053-0.026l-0.189-0.164l-0.027-0.054l-0.138-0.136    h-0.028l-0.189-0.19l-0.161-0.191h-0.028l-0.137-0.137l-0.027-0.054l-0.189-0.19l-0.029-0.027l-0.133-0.136l0,0l-0.165-0.218    l-0.189-0.19v-0.027l-0.137-0.136l-0.028-0.027l-0.08-0.108l-0.081-0.109l-0.056-0.027l-0.109-0.163l0,0l-0.162-0.19l-0.164-0.218    l-0.162-0.217l-0.164-0.191l-0.029-0.055l-0.107-0.163l-0.025-0.027l-0.137-0.19l0,0l-0.109-0.19l-0.027-0.027l-0.109-0.136    l-0.053-0.081l-0.056-0.109l-0.081-0.108l-0.056-0.082l-0.081-0.136l-0.137-0.218l-0.024-0.027l-0.108-0.19v-0.027l-0.113-0.163    l-0.023-0.054l-0.085-0.164l-0.053-0.055l-0.108-0.245l-0.057-0.081l-0.08-0.137l-0.028-0.055l-0.081-0.189l-0.137-0.218    l-0.109-0.245l-0.08-0.163l-0.028-0.081l-0.108-0.218l-0.109-0.245l-0.023-0.082l-0.085-0.162l-0.024-0.055l-0.084-0.191l0,0    l-0.081-0.218v-0.027l-0.108-0.245l-0.081-0.244l-0.056-0.137l-0.053-0.108l-0.081-0.271v-0.027l-0.085-0.218l0,0l-0.08-0.218    v-0.026l-0.08-0.272l-0.057-0.164l-0.025-0.081l-0.027-0.137l-0.028-0.109l-0.081-0.271v-0.055l-0.056-0.189v-0.027l-0.053-0.218    v-0.027l-0.056-0.218l-0.028-0.055l-0.053-0.244l-0.028-0.137l-0.027-0.135l-0.025-0.272l-0.027-0.055l-0.028-0.218v-0.027    l-0.053-0.219l0,0l-0.028-0.244v-0.027l-0.027-0.19l-0.029-0.081l-0.023-0.272v-0.108l-0.029-0.164v-0.081l-0.027-0.19v-0.027    l-0.028-0.244l0,0v-0.273l-0.024-0.19v-0.081v-0.164v-0.108v-0.136l-0.027-0.163v-0.082v-0.19v-0.027v-0.244v-18.23v-0.082v-0.108    v-14.747v-0.191V154.047c0.027-0.517,0.137-1.061,0.406-1.551l14.069-26.283V99.221c0-2.748-1.144-5.251-2.94-7.047    c-1.821-1.796-4.327-2.938-7.047-2.938H331.93v14.774c0,1.85-1.498,3.348-3.348,3.348H202.875c-1.85,0-3.345-1.498-3.345-3.348    V89.235h-64.024c-2.748,0-5.253,1.143-7.075,2.938c-1.797,1.796-2.913,4.299-2.913,7.047v18.04h10.206    c1.85,0,3.345,1.497,3.345,3.347v283.328c0,1.851-1.495,3.347-3.345,3.347h-10.206v18.04c0,2.748,1.116,5.252,2.913,7.074    c1.821,1.796,4.327,2.912,7.075,2.912h260.472c2.748,0,5.25-1.116,7.047-2.912c1.797-1.822,2.94-4.326,2.94-7.074v-14.666    l-0.192-0.054L405.721,410.575z M417.691,411.908c-1.688,0-3.373,0.026-5.061,0v13.414c0,4.571-1.878,8.761-4.871,11.781    c-3.047,3.021-7.209,4.898-11.781,4.898H135.506c-4.597,0-8.763-1.878-11.781-4.898c-3.021-3.021-4.899-7.21-4.899-11.781v-18.04    h-5.061v31.372c0,6.096,4.98,11.074,11.076,11.074h281.778c6.093,0,11.072-4.979,11.072-11.074V411.908z M432.192,375.284h-34.011    v14.966v0.163v0.027v0.136v0.055v0.189l0.029,0.082v0.109v0.055v0.135l0.027,0.191l0,0v0.162v0.027l0.024,0.191l0.028,0.191v0.189    l0.027,0.164l0.029,0.189v0.027l0.023,0.164l0,0l0.029,0.162l0.027,0.027v0.109l0.028,0.081l0.024,0.082v0.081l0.028,0.082    l0.028,0.109l0.027,0.189l0,0l0.053,0.164l0,0l0.028,0.189l0.053,0.164l0.056,0.191l0.053,0.162v0.055l0.057,0.137l0.053,0.162    l0.056,0.191l0.053,0.162l0.056,0.191l0.081,0.162l0.056,0.164l0.082,0.163l0,0l0.056,0.163l0,0l0.081,0.19l0.08,0.164    l0.057,0.163l0.08,0.163l0.081,0.163l0,0l0.081,0.137v0.027l0.084,0.162l0.053,0.109l0.027,0.055l0.053,0.054l0.057,0.082    l0.08,0.163l0.081,0.163h0.028l0.057,0.136l0.023,0.027l0.085,0.137l0.108,0.162l0.081,0.137l0.108,0.164l0.109,0.136v0.027    l0.08,0.136h0.028l0.081,0.137l0.108,0.135l0.081,0.082l0.028,0.082l0.108,0.136l0.057,0.027l0.052,0.108l0.138,0.137l0,0    l0.08,0.136h0.028l0.108,0.136l0.081,0.109l0.028,0.027l0.137,0.135l0.053,0.055l0.056,0.082l0.053,0.027l0.085,0.108l0.024,0.027    l0.084,0.108h0.024l0.109,0.109l0,0l0.108,0.109l0.028,0.027l0.08,0.081l0.057,0.055l0.108,0.109l0.137,0.136l0.134,0.108    l0.137,0.109v0.026l0.137,0.082v0.027l0.137,0.108l0.138,0.109l0.161,0.108l0.137,0.109l0.137,0.108l0.162,0.108l0,0l0.108,0.109    h0.028l0.137,0.108l0.161,0.108l0.137,0.109l0.162,0.082l0.165,0.108l0.137,0.081l0,0l0.133,0.083l0.028,0.027l0.165,0.081    l0.161,0.082l0.137,0.081l0.165,0.109l0.162,0.081l0.164,0.082l0,0l0.162,0.081l0,0l0.165,0.082l0.161,0.055l0.165,0.081    l0.189,0.082l0.161,0.055l0.681,0.271l0.085,0.027l0.08,0.027l0.189,0.054l0.165,0.055l0.189,0.055l0,0l0.162,0.055l0,0    l0.165,0.054l0.379,0.082l0.165,0.055l0.189,0.026l0.027,0.027h0.081l0.057,0.027h0.024h0.028h0.027l0.053,0.027h0.057l0,0    l0.027,0.027h0.053h0.057h0.028h0.024l0.027,0.027h0.057h0.053l0.028,0.026h0.027h0.024h0.057h0.053l0.028,0.027h0.027h0.028    h0.053h0.057l0.024,0.027h0.028h0.027h0.053h0.057l0.027,0.027h0.053h0.057h0.053h0.027l0,0l0.053,0.027h0.057h0.053h0.027h0.028    h0.028l0.053,0.027h0.056h0.025h0.027h0.028h0.053h0.057h0.027h0.024l0.057,0.027h0.028h0.053h0.027h0.028h0.053h0.056h0.025    h0.027h0.028h0.053h0.056l0.028,0.026h0.024h0.028h0.057h0.053h0.056l0,0h0.053h0.028h0.056h0.053l0,0h0.057h0.053h0.027h0.053    h4.082l1.361-0.054l0.516-0.055l0.955-0.163l0.189-0.027c2.909-0.599,5.523-2.067,7.563-4.081c2.721-2.721,4.38-6.476,4.38-10.584    V375.284z M105.795,472.203c-1.853,0-3.348-1.496-3.348-3.347c0-1.85,1.495-3.347,3.348-3.347h194.518    c1.821,0,3.32,1.497,3.32,3.347c0,1.851-1.499,3.347-3.32,3.347H105.795z M219.692,485.999c-1.853,0-3.348-1.497-3.348-3.348    c0-1.85,1.495-3.347,3.348-3.347h134.604c1.821,0,3.316,1.497,3.316,3.347c0,1.851-1.495,3.348-3.316,3.348H219.692z     M368.063,485.999c-1.853,0-3.348-1.497-3.348-3.348c0-1.85,1.495-3.347,3.348-3.347h16.813c1.85,0,3.349,1.497,3.349,3.347    c0,1.851-1.499,3.348-3.349,3.348H368.063z M83.155,485.645c-1.821,0-3.348-1.523-3.348-3.347c0-1.851,1.527-3.347,3.348-3.347    h63.778c1.85,0,3.348,1.496,3.348,3.347c0,1.823-1.499,3.347-3.348,3.347H83.155z M110.336,400.589h0.084h11.672h0.081h10.202    V123.954h-10.202h-0.081h-11.672h-0.084H89.441v12.651h8.679c1.849,0,3.348,1.524,3.348,3.348c0,1.851-1.499,3.346-3.348,3.346    h-8.679v9.986h17.93c1.849,0,3.348,1.496,3.348,3.347s-1.499,3.347-3.348,3.347h-17.93v9.388h8.679    c1.849,0,3.348,1.497,3.348,3.319c0,1.85-1.499,3.348-3.348,3.348h-8.679v10.012h17.93c1.849,0,3.348,1.497,3.348,3.32    c0,1.85-1.499,3.346-3.348,3.346h-17.93v9.388h8.679c1.849,0,3.348,1.497,3.348,3.347c0,1.851-1.499,3.347-3.348,3.347h-8.679    v9.986h17.93c1.849,0,3.348,1.495,3.348,3.347c0,1.822-1.499,3.347-3.348,3.347h-17.93v9.36h8.679    c1.849,0,3.348,1.496,3.348,3.346c0,1.851-1.499,3.348-3.348,3.348h-8.679v9.984h17.93c1.849,0,3.348,1.498,3.348,3.348    s-1.499,3.347-3.348,3.347h-17.93v9.36h8.679c1.849,0,3.348,1.496,3.348,3.346c0,1.851-1.499,3.348-3.348,3.348h-8.679v9.984    h17.93c1.849,0,3.348,1.497,3.348,3.348s-1.499,3.346-3.348,3.346h-17.93v9.36h8.679c1.849,0,3.348,1.524,3.348,3.347    c0,1.852-1.499,3.347-3.348,3.347h-8.679v9.986h17.93c1.849,0,3.348,1.523,3.348,3.347c0,1.85-1.499,3.348-3.348,3.348h-17.93    v9.387h8.679c1.849,0,3.348,1.496,3.348,3.346c0,1.823-1.499,3.348-3.348,3.348h-8.679v9.985h17.93    c1.849,0,3.348,1.497,3.348,3.347c0,1.822-1.499,3.319-3.348,3.319h-17.93v9.388h8.679c1.849,0,3.348,1.496,3.348,3.347    c0,1.85-1.499,3.347-3.348,3.347h-8.679v9.984h17.93c1.849,0,3.348,1.498,3.348,3.348c0,1.851-1.499,3.347-3.348,3.347h-17.93    v11.428H110.336z" style="fill-rule:evenodd;clip-rule:evenodd;"/>
</g>
</g>
<g id="Layer_1"/>
</svg>