<svg xmlns="http://www.w3.org/2000/svg" viewBox="0 0 32 32" width="32" height="32">
  <defs>
    <style>
      .bg { fill: #000000 !important; }
      .logo { fill: #ffffff !important; }
    </style>
  </defs>
  <rect width="32" height="32" class="bg"/>
  <g class="logo" transform="scale(1.8) translate(3, 4)">
    <rect x="1" y="0" width="1" height="1" />
    <rect x="2" y="0" width="1" height="1" />
    <rect x="3" y="0" width="1" height="1" />
    <rect x="0" y="1" width="1" height="1" />
    <rect x="4" y="1" width="1" height="1" />
    <rect x="0" y="2" width="1" height="1" />
    <rect x="1" y="3" width="1" height="1" />
    <rect x="2" y="3" width="1" height="1" />
    <rect x="3" y="3" width="1" height="1" />
    <rect x="4" y="4" width="1" height="1" />
    <rect x="0" y="5" width="1" height="1" />
    <rect x="4" y="5" width="1" height="1" />
    <rect x="1" y="6" width="1" height="1" />
    <rect x="2" y="6" width="1" height="1" />
    <rect x="3" y="6" width="1" height="1" />
    <rect x="7" y="0" width="1" height="1" />
    <rect x="11" y="0" width="1" height="1" />
    <rect x="7" y="1" width="1" height="1" />
    <rect x="10" y="1" width="1" height="1" />
    <rect x="7" y="2" width="1" height="1" />
    <rect x="9" y="2" width="1" height="1" />
    <rect x="7" y="3" width="1" height="1" />
    <rect x="8" y="3" width="1" height="1" />
    <rect x="7" y="4" width="1" height="1" />
    <rect x="9" y="4" width="1" height="1" />
    <rect x="7" y="5" width="1" height="1" />
    <rect x="10" y="5" width="1" height="1" />
    <rect x="7" y="6" width="1" height="1" />
    <rect x="11" y="6" width="1" height="1" />
  </g>
</svg>
